HIERARCHY
ROOT Hips
{
	OFFSET 0.000000 0.000000 0.000000
	CHANNELS 6 Xposition Yposition Zposition Zrotation Yrotation Xrotation 
	JOINT LHipJoint
	{
		OFFSET 0.000000 0.000000 0.000000
		CHANNELS 3 Zrotation Yrotation Xrotation
		JOINT LeftUpLeg
		{
			OFFSET 1.363060 -1.794630 0.839290
			CHANNELS 3 Zrotation Yrotation Xrotation
			JOINT LeftLeg
			{
				OFFSET 2.448110 -6.726130 0.000000
				CHANNELS 3 Zrotation Yrotation Xrotation
				JOINT LeftFoot
				{
					OFFSET 2.562200 -7.039590 0.000000
					CHANNELS 3 Zrotation Yrotation Xrotation
					JOINT LeftToeBase
					{
						OFFSET 0.157640 -0.433110 2.322550
						CHANNELS 3 Zrotation Yrotation Xrotation
						End Site
						{
							OFFSET 0.000000 0.000000 0.000000
						}
					}
				}
			}
		}
	}
	JOINT RHipJoint
	{
		OFFSET 0.000000 0.000000 0.000000
		CHANNELS 3 Zrotation Yrotation Xrotation
		JOINT RightUpLeg
		{
			OFFSET -1.305520 -1.794630 0.839290
			CHANNELS 3 Zrotation Yrotation Xrotation
			JOINT RightLeg
			{
				OFFSET -2.542530 -6.985550 0.000000
				CHANNELS 3 Zrotation Yrotation Xrotation
				JOINT RightFoot
				{
					OFFSET -2.568260 -7.056230 0.000000
					CHANNELS 3 Zrotation Yrotation Xrotation
					JOINT RightToeBase
					{
						OFFSET -0.164730 -0.452590 2.363150
						CHANNELS 3 Zrotation Yrotation Xrotation
						End Site
						{
							OFFSET 0.000000 0.000000 0.000000
						}
					}
				}
			}
		}
	}
	JOINT LowerBack
	{
		OFFSET 0.000000 0.000000 0.000000
		CHANNELS 3 Zrotation Yrotation Xrotation
		JOINT Spine
		{
			OFFSET 0.028270 2.035590 -0.193380
			CHANNELS 3 Zrotation Yrotation Xrotation
			JOINT Spine1
			{
				OFFSET 0.056720 2.048850 -0.042750
				CHANNELS 3 Zrotation Yrotation Xrotation
				JOINT Neck
				{
					OFFSET 0.000000 0.000000 0.000000
					CHANNELS 3 Zrotation Yrotation Xrotation
					JOINT Neck1
					{
						OFFSET -0.054170 1.746240 0.172020
						CHANNELS 3 Zrotation Yrotation Xrotation
						JOINT Head
						{
							OFFSET 0.104070 1.761360 -0.123970
							CHANNELS 3 Zrotation Yrotation Xrotation
							End Site
							{
								OFFSET 0.000000 0.000000 0.000000
							}
						}
					}
				}
				JOINT LeftShoulder
				{
					OFFSET 0.000000 0.000000 0.000000
					CHANNELS 3 Zrotation Yrotation Xrotation
					JOINT LeftArm
					{
						OFFSET 3.362410 1.200890 -0.311210
						CHANNELS 3 Zrotation Yrotation Xrotation
						JOINT LeftForeArm
						{
							OFFSET 4.983000 -0.000000 -0.000000
							CHANNELS 3 Zrotation Yrotation Xrotation
							JOINT LeftHand
							{
								OFFSET 3.483560 -0.000000 -0.000000
								CHANNELS 3 Zrotation Yrotation Xrotation
								JOINT LeftFingerBase
								{
									OFFSET 0.000000 0.000000 0.000000
									CHANNELS 3 Zrotation Yrotation Xrotation
									JOINT LeftHandIndex1
									{
										OFFSET 0.715260 -0.000000 -0.000000
										CHANNELS 3 Zrotation Yrotation Xrotation
										End Site
										{
											OFFSET 0.000000 0.000000 0.000000
										}
									}
								}
								JOINT LThumb
								{
									OFFSET 0.000000 0.000000 0.000000
									CHANNELS 3 Zrotation Yrotation Xrotation
									End Site
									{
										OFFSET 0.000000 0.000000 0.000000
									}
								}
							}
						}
					}
				}
				JOINT RightShoulder
				{
					OFFSET 0.000000 0.000000 0.000000
					CHANNELS 3 Zrotation Yrotation Xrotation
					JOINT RightArm
					{
						OFFSET -3.136600 1.374050 -0.404650
						CHANNELS 3 Zrotation Yrotation Xrotation
						JOINT RightForeArm
						{
							OFFSET -5.241900 -0.000000 -0.000000
							CHANNELS 3 Zrotation Yrotation Xrotation
							JOINT RightHand
							{
								OFFSET -3.444170 -0.000000 -0.000000
								CHANNELS 3 Zrotation Yrotation Xrotation
								JOINT RightFingerBase
								{
									OFFSET 0.000000 0.000000 0.000000
									CHANNELS 3 Zrotation Yrotation Xrotation
									JOINT RightHandIndex1
									{
										OFFSET -0.622530 -0.000000 -0.000000
										CHANNELS 3 Zrotation Yrotation Xrotation
										End Site
										{
											OFFSET 0.000000 0.000000 0.000000
										}
									}
								}
								JOINT RThumb
								{
									OFFSET 0.000000 0.000000 0.000000
									CHANNELS 3 Zrotation Yrotation Xrotation
									End Site
									{
										OFFSET 0.000000 0.000000 0.000000
									}
								}
							}
						}
					}
				}
			}
		}
	}
}
MOTION
Frames: 11
Frame Time: 0.008333
-8.296877 14.825225 -24.248799 -2.850611 -33.307511 21.805831 7.592990 2.889896 -9.656755 -26.266769 4.472406 -4.639755 -5.882336 5.943890 46.528226 -19.217167 -15.347491 42.595560 -6.992387 0.154816 -15.022156 10.556494 -5.397639 -0.121583 12.286125 9.025725 -68.259773 154.904040 -27.168782 118.172518 -150.734397 -28.788000 154.203073 -108.328139 35.945921 -147.263378 -12.321837 1.384898 15.595085 4.108880 -1.531231 -6.322849 5.818017 -4.824647 11.008504 -2.930334 4.459483 -19.083533 0.494815 4.646474 13.781371 -12.357719 10.310106 -3.026837 19.265820 0.856534 0.668068 -57.909554 -62.506053 0.797439 14.370230 -69.809697 33.317829 6.661966 -33.278007 2.690395 0.000002 -0.000001 0.000002 -0.000000 0.000000 -0.000000 0.000000 0.000000 0.000000 -8.046549 -7.337042 4.251221 71.717128 13.956723 1.988995 30.966551 48.670783 48.473452 -14.549376 22.445186 0.066589 -0.000005 0.000004 -0.000002 0.000000 -0.000000 -0.000000 0.000000 0.000000 0.000000 
-8.404655 14.807237 -24.060811 -3.264923 -33.223064 22.136952 6.576781 2.218424 -8.761521 -24.717234 3.014156 -6.718289 -7.311084 6.417820 48.932231 -15.659461 -12.973984 43.489371 -7.225269 -0.244125 -15.259742 11.501828 -4.605619 -0.766383 11.644685 7.832614 -67.670547 153.953927 -26.947109 117.049839 -152.199445 -30.248295 154.183370 -97.692057 33.790621 -155.025264 -12.269596 1.276476 15.553225 4.307132 -1.220852 -6.459956 6.224446 -4.654661 11.258431 -3.114787 4.400455 -19.359793 0.380764 4.632353 13.879631 -12.322444 10.089143 -2.977443 18.151376 1.099676 0.974131 -57.793474 -61.995631 2.070762 14.177678 -69.581576 34.223711 6.161607 -34.376568 2.938178 0.000002 -0.000001 0.000002 0.000000 0.000000 -0.000000 0.000000 0.000000 0.000000 -7.485682 -7.253259 4.385935 70.907945 15.918061 1.533106 30.482896 48.334970 48.302582 -14.157696 22.695727 0.153443 -0.000005 0.000004 -0.000002 0.000000 0.000000 -0.000000 0.000000 0.000000 -0.000000 
-8.521982 14.806366 -23.866366 -3.623876 -33.150625 22.594800 5.344820 1.497508 -7.734559 -22.777324 1.538855 -9.065783 -8.529530 7.375839 50.956127 -12.467082 -10.714481 44.928706 -8.766345 -2.010762 -17.622306 12.744591 -3.824753 -1.337743 11.198011 6.411058 -67.382204 153.187839 -27.485109 116.207896 -153.427553 -31.513270 154.220058 -92.981279 33.407549 -157.977867 -12.438969 1.126821 15.356382 4.666055 -1.156112 -6.646981 6.880316 -4.690705 11.617551 -3.474266 4.435577 -19.699530 0.172314 4.753345 13.997441 -11.624719 9.994926 -3.834694 16.537067 1.737350 1.399483 -57.575708 -61.537133 3.437916 14.230626 -69.267943 34.471065 5.604123 -34.863744 3.173604 0.000002 -0.000001 0.000002 -0.000000 0.000000 0.000000 0.000000 -0.000000 0.000000 -6.958601 -6.713599 4.504125 69.835752 17.990006 0.987529 29.924179 47.956336 47.292146 -14.392519 21.963070 0.098877 -0.000005 0.000004 -0.000002 -0.000000 -0.000000 -0.000000 -0.000000 -0.000000 -0.000000 
-8.645976 14.795390 -23.675976 -3.886426 -33.060142 22.582471 5.294744 1.696378 -7.419769 -22.044875 0.485802 -11.361077 -8.107787 9.218431 54.600674 -10.412556 -9.397832 42.002882 -8.637164 -1.494992 -17.680117 12.623556 -4.000377 -1.266145 12.122849 6.235848 -66.863189 152.703305 -27.983361 115.440893 -155.633918 -31.221912 152.615025 -93.351984 33.291468 -158.018178 -12.458924 0.986168 15.214834 4.704466 -0.932584 -6.510982 6.582434 -4.511883 12.225686 -3.036988 4.445124 -19.994556 0.209635 4.675136 13.779564 -11.948194 9.882908 -4.259523 16.871065 2.544971 1.570411 -57.901464 -60.874784 4.612682 14.764656 -69.110154 34.480139 4.469656 -35.607999 3.627131 0.000002 -0.000001 0.000002 -0.000000 0.000000 0.000000 0.000000 0.000000 0.000000 -6.605974 -6.568352 4.855083 69.644308 20.648032 0.208213 30.094436 47.300773 47.183027 -16.347325 21.373813 -0.311218 -0.000005 0.000004 -0.000002 -0.000000 -0.000000 0.000000 -0.000000 -0.000000 -0.000000 
-8.766517 14.779700 -23.485886 -4.119560 -33.073662 22.525566 5.189680 1.799622 -7.020293 -21.214468 -0.585521 -13.639831 -8.168082 10.824901 58.149731 -8.240297 -7.585195 38.909627 -6.897922 -0.257752 -14.514450 12.274623 -4.133456 -1.235738 12.658496 6.331254 -66.050611 152.292281 -27.860064 114.601386 -157.911859 -31.103930 151.084018 -88.896213 33.915953 -159.619634 -12.485107 0.870636 15.072567 4.719824 -0.784274 -6.361429 5.575678 -4.042317 12.482698 -1.892950 4.479657 -19.877797 0.263180 4.474653 13.551127 -13.391582 10.185660 -3.113334 17.988860 3.014709 1.627180 -58.350361 -59.679745 5.820464 15.072098 -68.930976 34.258270 3.049420 -35.845931 4.133531 0.000002 -0.000001 0.000002 0.000000 0.000000 0.000000 0.000000 0.000000 0.000000 -5.627516 -6.256006 5.340753 69.402847 23.011853 -0.290309 29.902449 46.774072 46.695964 -15.519495 21.235039 -0.143555 -0.000005 0.000004 -0.000002 0.000000 -0.000000 -0.000000 -0.000000 -0.000000 0.000000 
-8.873874 14.782357 -23.299399 -4.417713 -33.014919 22.487560 4.688329 1.501427 -6.699680 -19.753766 -1.259194 -15.921655 -6.749955 13.149572 61.202927 -7.085226 -6.395984 37.001371 -5.146130 2.016252 -12.287126 11.964907 -3.767176 -1.506718 12.743832 5.865595 -64.775042 152.615741 -27.397969 113.849515 -159.603834 -30.507425 149.723972 -87.965686 33.881995 -160.251956 -12.389656 0.718934 15.221746 4.767982 -0.584468 -6.314499 6.048910 -3.859166 12.588435 -2.241009 4.458545 -19.839968 0.254108 4.489347 13.342746 -13.576925 10.207625 -2.480922 17.374816 3.461367 1.851438 -58.504981 -58.806713 6.859833 15.464344 -68.660801 33.850596 1.886958 -35.638356 4.506281 0.000002 -0.000001 0.000002 0.000000 -0.000000 -0.000000 -0.000000 0.000000 -0.000000 -5.938773 -5.865110 5.609396 68.860001 25.261421 -0.476502 29.151300 46.436613 47.316837 -16.393110 21.168603 -0.317932 -0.000005 0.000004 -0.000002 -0.000000 -0.000000 0.000000 -0.000000 -0.000000 0.000000 
-8.986126 14.793303 -23.101201 -4.752211 -33.008075 22.600507 4.048624 1.251821 -6.276509 -18.107763 -1.849984 -18.377408 -4.146924 15.662763 64.025384 -6.502226 -6.000262 35.776135 -4.891939 3.310864 -12.601578 11.853067 -3.476121 -1.649966 13.007468 5.361787 -63.797423 152.888229 -27.349681 113.288662 -161.421103 -30.199924 148.485164 -88.479703 33.643796 -160.356299 -12.314446 0.520883 15.146273 4.859989 -0.264003 -6.256912 6.796456 -3.663472 12.711613 -2.853180 4.436502 -19.798072 0.174983 4.531779 13.191007 -13.018027 9.658293 -3.066364 16.308850 3.741536 2.051251 -58.662076 -57.929153 8.208000 16.358973 -68.241571 33.589290 2.362641 -36.025993 4.398033 0.000002 -0.000001 0.000002 -0.000000 0.000000 -0.000000 0.000000 0.000000 -0.000000 -6.349408 -5.278400 5.288571 68.085918 26.808044 0.300423 27.349186 46.639980 47.853840 -17.542161 20.332660 -0.543518 -0.000005 0.000004 -0.000002 -0.000000 -0.000000 -0.000000 -0.000000 0.000000 -0.000000 
-9.112733 14.812132 -22.911562 -4.328918 -33.152339 22.361120 3.869045 1.307986 -6.005289 -17.665334 -2.508173 -20.917700 -3.178711 17.001976 66.781619 -5.512950 -4.847186 33.304916 -6.391770 1.401944 -14.523143 12.105085 -3.490920 -1.603638 12.749191 4.678235 -63.327769 153.369234 -27.983288 112.839527 -162.932140 -29.875447 147.778720 -87.379723 33.789722 -160.801565 -12.656247 0.320525 15.006177 4.930253 -0.225043 -6.197105 6.900719 -3.636521 13.257851 -3.020071 4.400168 -20.156719 0.069776 4.524404 12.941248 -13.131773 9.370625 -3.604704 15.835425 4.709205 2.390520 -59.164174 -56.952201 9.217373 16.660068 -67.982468 34.626526 2.965124 -38.051668 4.435207 0.000002 -0.000001 0.000002 0.000000 0.000000 0.000000 0.000000 0.000000 0.000000 -6.580111 -5.061236 5.659001 67.560191 29.653222 -0.002834 27.184857 47.426788 49.360660 -20.857872 19.840504 -1.167118 -0.000005 0.000004 -0.000002 -0.000000 0.000000 -0.000000 0.000000 0.000000 0.000000 
-9.224685 14.836547 -22.726126 -4.089644 -33.253588 22.056233 3.563520 1.151810 -5.795054 -16.853785 -2.951399 -23.262905 -2.233964 18.282483 69.419392 -4.619785 -3.605754 30.957068 -5.962633 -0.201614 -12.494779 12.283589 -3.283722 -1.834845 12.629939 3.614979 -62.328504 154.302851 -28.644977 112.479034 -164.092164 -29.113313 147.179092 -86.624467 33.879763 -161.132452 -12.700616 0.247391 15.212378 4.954703 -0.056520 -6.198280 6.568349 -3.293429 13.775152 -2.822732 4.412509 -20.586977 -0.026882 4.504209 12.721986 -12.956253 9.210438 -3.819597 15.803708 5.053011 2.049862 -59.676714 -55.486333 10.161545 16.737244 -67.642042 35.436439 2.498540 -39.473378 4.797740 0.000002 -0.000001 0.000002 0.000000 0.000000 0.000000 0.000000 0.000000 0.000000 -6.164996 -5.566956 6.797857 66.716415 33.428880 -1.369795 27.757386 47.707632 49.338304 -21.372898 19.918421 -1.265803 -0.000005 0.000004 -0.000002 0.000000 0.000000 0.000000 0.000000 -0.000000 -0.000000 
-9.333544 14.852838 -22.522823 -4.009821 -33.608470 21.980560 3.292801 1.139907 -5.397954 -16.019691 -3.421439 -25.860400 -0.428017 19.809021 71.970637 -4.032615 -2.938826 28.941748 -5.275143 0.373550 -11.387145 12.123219 -3.221629 -1.916655 12.771760 3.128371 -61.377426 154.586650 -28.943495 112.227597 -165.558301 -29.113600 146.419810 -84.608673 34.427957 -161.454263 -12.593982 0.056896 15.009719 4.960649 0.022669 -6.118632 5.021216 -2.657287 14.116778 -1.505012 4.570781 -20.643366 -0.157362 4.384605 12.504130 -13.520735 9.507357 -2.528067 16.798860 5.408501 1.659683 -60.292774 -53.482176 11.467289 17.274380 -67.128202 34.825019 0.678290 -39.142663 5.432540 0.000002 -0.000001 0.000002 0.000000 -0.000000 -0.000000 -0.000000 -0.000000 -0.000000 -4.720868 -5.235462 7.390303 65.721032 36.201243 -1.668916 27.005980 48.477752 47.646100 -18.067786 19.467941 -0.621338 -0.000005 0.000004 -0.000002 0.000000 0.000000 -0.000000 -0.000000 -0.000000 0.000000 
-9.450210 14.887462 -22.316366 -3.935297 -33.889766 22.101615 2.823797 0.968265 -5.063858 -15.070065 -3.275701 -28.739929 1.719591 20.692004 74.492652 -3.613467 -2.650439 27.293942 -4.793729 0.393173 -10.357547 12.439079 -2.951855 -2.003670 12.200860 2.455902 -60.571469 154.914710 -28.966787 112.113040 -167.307097 -29.387752 145.833228 -82.433592 34.913843 -162.009660 -12.627324 -0.114576 14.683139 5.071456 0.220269 -6.089221 4.892674 -2.294332 14.514211 -1.505986 4.550329 -20.849979 -0.348857 4.362502 12.311241 -14.069413 9.711692 -1.103740 16.192788 5.530889 1.166470 -60.637905 -51.609846 12.926599 18.359302 -66.478752 33.493409 2.606832 -38.178531 4.608048 0.000002 -0.000001 0.000002 -0.000000 0.000000 -0.000000 0.000000 0.000000 -0.000000 -4.322449 -5.044789 7.778990 64.395863 38.886571 -1.906820 25.762257 49.339095 49.423411 -19.146150 20.432697 -0.858276 -0.000005 0.000004 -0.000002 0.000000 0.000000 -0.000000 0.000000 0.000000 0.000000 
